<svg width="64" height="64" viewBox="0 0 64 64" fill="none" xmlns="http://www.w3.org/2000/svg">
<path d="M11.1994 38.5601V35.1996C11.1994 34.3196 11.9115 33.5998 12.7993 33.5998H30.3993V38.5596C30.9116 38.4558 31.4473 38.3995 31.9991 38.3995C32.5432 38.3995 33.0789 38.4553 33.599 38.5596L33.5996 33.5998H51.9996C52.8796 33.5998 53.5994 34.3196 53.5994 35.1996V38.5596C54.1117 38.4558 54.6474 38.3995 55.1993 38.3995C55.7434 38.3995 56.2791 38.4553 56.7991 38.5596L56.7997 35.1996C56.7997 32.5518 54.6395 30.3993 51.9994 30.3993L33.5994 30.3999V25.5996H30.3997V30.3999H12.7997C10.1518 30.3999 7.9994 32.5516 7.9994 35.2002V38.5602C8.51168 38.4564 9.04739 38.4 9.59926 38.4C10.1433 38.4 10.6796 38.4558 11.1991 38.5602L11.1994 38.5601Z" fill="white"/>
<path d="M36.568 52.9514C35.2717 53.8632 33.6959 54.3996 31.9999 54.3996C30.2956 54.3996 28.7197 53.8633 27.424 52.9514C24.5519 53.5837 22.4 56.1434 22.4 59.1991V62.3988C22.4 63.2789 23.1121 63.9987 23.9999 63.9987H39.9999C40.8799 63.9987 41.5997 63.2788 41.5997 62.3988V59.1991C41.5997 56.1433 39.4396 53.5836 36.5679 52.9514H36.568Z" fill="white"/>
<path d="M59.5437 53.1043C58.2876 53.9207 56.7999 54.4006 55.1994 54.4006C53.4316 54.4006 51.7993 53.8164 50.4712 52.8403C47.2876 53.2003 44.7999 55.9123 44.7999 59.2003V62.4C44.7999 63.2801 45.5119 63.9999 46.3997 63.9999H62.3997C63.2798 63.9999 63.9996 63.28 63.9996 62.4V59.2003C63.9996 56.3526 62.1196 53.9286 59.5437 53.1043V53.1043Z" fill="white"/>
<path d="M14.168 52.9514C12.8722 53.8632 11.2959 54.3996 9.59986 54.3996C7.89557 54.3996 6.31971 53.8633 5.024 52.9514C2.15186 53.5837 0 56.1434 0 59.1991V62.3988C0 63.2789 0.712058 63.9987 1.59986 63.9987H17.5999C18.4799 63.9987 19.1997 63.2788 19.1997 62.3988V59.1991C19.1997 56.1433 17.0401 53.5836 14.1679 52.9514H14.168Z" fill="white"/>
<path d="M36.7994 46.3999C36.7994 49.0506 34.6504 51.1996 31.9991 51.1996C29.3479 51.1996 27.1989 49.0506 27.1989 46.3999C27.1989 43.7486 29.3479 41.5996 31.9991 41.5996C34.6504 41.5996 36.7994 43.7486 36.7994 46.3999Z" fill="white"/>
<path d="M23.9994 22.3999H39.9994C40.8795 22.3999 41.5993 21.68 41.5993 20.8001V17.6003C41.5993 14.5445 39.4391 11.9843 36.5674 11.3526C35.2711 12.2639 33.6953 12.8002 31.9993 12.8002C30.295 12.8002 28.7191 12.2639 27.4234 11.3521C24.5513 11.9838 22.3994 14.5441 22.3994 17.5998V20.7995C22.3994 21.6801 23.1115 22.3999 23.9993 22.3999H23.9994Z" fill="white"/>
<path d="M36.7994 4.80028C36.7994 7.451 34.6504 9.6 31.9991 9.6C29.3479 9.6 27.1989 7.451 27.1989 4.80028C27.1989 2.149 29.3479 0 31.9991 0C34.6504 0 36.7994 2.149 36.7994 4.80028Z" fill="white"/>
<path d="M59.9994 46.3999C59.9994 49.0506 57.8504 51.1996 55.1991 51.1996C52.5484 51.1996 50.3994 49.0506 50.3994 46.3999C50.3994 43.7486 52.5484 41.5996 55.1991 41.5996C57.8504 41.5996 59.9994 43.7486 59.9994 46.3999Z" fill="white"/>
<path d="M14.3994 46.3999C14.3994 49.0506 12.2504 51.1996 9.59914 51.1996C6.94843 51.1996 4.79943 49.0506 4.79943 46.3999C4.79943 43.7486 6.94843 41.5996 9.59914 41.5996C12.2504 41.5996 14.3994 43.7486 14.3994 46.3999Z" fill="white"/>
</svg>
