<svg width="59" height="65" viewBox="0 0 59 65" fill="none" xmlns="http://www.w3.org/2000/svg">
<path d="M55.75 43.7499C54.5 42.7499 52.75 42.4999 51.5 43.4999L36.75 50.2499H26.75L24.5 48.4999L31.25 45.9999C33 45.2499 34 43.4999 33.5 41.7499C33 39.9999 31.25 38.9999 29.5 39.2499L18.5 41.2499C16.5 41.4999 14.75 42.4999 13.5 43.9999L11.75 45.9999V60.9999C11.75 61.9999 12.75 62.9999 13.75 62.9999H19.75L41 58.7499L55.75 48.4999C57 47.2499 57 44.9999 55.75 43.7499Z" fill="#FDFBFF"/>
<path d="M0 42.5H9V65H0V42.5Z" fill="#FDFBFF"/>
<path d="M54 21C53.75 20.25 53.25 19.5 52.75 18.75L53.75 14L49.75 11.5L46.25 15C45.75 15 45.25 14.75 44.75 14.75C44.25 14.75 43.75 14.75 43.25 15L39.5 12L35.5 14.5L36.5 19.25C36 20 35.5 20.75 35.25 21.5L30.75 22.5V27L35.25 28.5C35.5 29.25 36 30 36.5 30.75L35.5 35.5L39.5 38L43.25 35C43.75 35 44.25 35.25 44.75 35.25C45.25 35.25 45.75 35.25 46.25 35L50 38L54 35.5L53 30.75C53.5 30 54 29.25 54.25 28.5L58.75 27V22.5L54 21ZM44.75 31C41.5 31 38.75 28.25 38.75 25C38.75 21.75 41.5 19 44.75 19C48 19 50.75 21.75 50.75 25C50.75 28.25 48 31 44.75 31Z" fill="#FDFBFF"/>
<path d="M44.75 22.75C45.25 22.75 45.75 23 45.75 23.5H47.5C47.5 22.5 46.75 21.75 45.75 21.5V20.5H44V21.5C43 21.75 42.25 22.75 42.25 23.5C42.25 24.75 43.5 25.75 45 25.75C45.5 25.75 46 26 46 26.5C46 27 45.5 27.25 45 27.25C44.5 27.25 44 27 44 26.5H42.25C42.25 27.5 43 28.25 44 28.5V29.5H45.75V28.5C46.75 28.25 47.5 27.25 47.5 26.5C47.5 25.25 46.25 24.25 44.75 24.25C44.25 24.25 43.75 24 43.75 23.5C43.75 23 44.25 22.75 44.75 22.75Z" fill="#FDFBFF"/>
<path d="M20.75 12.5L20 15.5L22.5 17L25 15H26H27L29.25 17L31.75 15.5L31.25 12.5L32 11L35 10V7L32 6L31.25 4.5L32 1.5L29.5 0L27.25 2H26.25H25.25L22.75 0L20.25 1.5L21 4.5L20.25 6L17.25 7V10L20.25 11C20.25 11.5 20.5 12 20.75 12.5ZM26 4.5C28.25 4.5 30 6.25 30 8.5C30 10.75 28.25 12.5 26 12.5C23.75 12.5 22 10.75 22 8.5C22 6.25 23.75 4.5 26 4.5Z" fill="#FDFBFF"/>
<path d="M26 10C25.75 10 25.5 9.75 25.5 9.5H24.25C24.25 10.25 24.75 10.75 25.5 10.75V11.25H26.75V10.75C27.5 10.5 28 10 28 9.5C28 8.75 27.25 8 26.25 8C26 8 25.75 7.75 25.75 7.5C25.75 7.25 26 7 26.25 7C26.5 7 26.75 7.25 26.75 7.5H28C28 6.75 27.5 6.25 26.75 6.25V5.5H25.5V6C24.75 6.25 24.25 7 24.25 7.5C24.25 8.25 25 9 26 9C26.25 9 26.5 9.25 26.5 9.5C26.5 9.75 26.25 10 26 10Z" fill="#FDFBFF"/>
<path d="M13.75 31.75L17 33.75L19.75 31.5L18.25 28C18.5 27.5 18.75 26.75 19 26L22.25 24.25L21.75 20.75L18.25 20C18 19.75 17.75 19.25 17.5 19C17.25 18.75 17 18.5 16.5 18.25V14.5L13.25 13.25L10.75 16.25C10 16.25 9.5 16.5 8.75 16.5L5.75 14.5L2.75 17L4.25 20.5C4 21 3.75 21.75 3.5 22.5L0.25 24.25L0.75 27.75L4.5 28.5C4.75 28.75 5 29.25 5.25 29.5C5.5 29.75 5.75 30 6.25 30.25V34L9.75 35.25L11.75 32.25C12.5 32 13 32 13.75 31.75ZM7.75 27.25C6 25.25 6.25 22.25 8.25 20.5C10.25 18.75 13.25 19 15 21C16.75 23 16.5 26 14.5 27.75C12.25 29.5 9.25 29.25 7.75 27.25Z" fill="#FDFBFF"/>
<path d="M11.25 22.5C11.75 22.5 12 22.75 12 23H13.5C13.5 22.25 13 21.5 12 21.25V20.5H10.5V21.25C9.75 21.5 9.25 22.25 9.25 23C9.25 24 10.25 24.75 11.5 24.75C12 24.75 12.25 25 12.25 25.25C12.25 25.5 12 25.75 11.5 25.75C11 25.75 10.75 25.5 10.75 25.25H9.25C9.25 26 9.75 26.75 10.75 27V27.75H12.25V27C13 26.75 13.75 26 13.75 25.25C13.75 24.25 12.75 23.5 11.5 23.5C11 23.5 10.75 23.25 10.75 23C10.5 22.75 11 22.5 11.25 22.5Z" fill="#FDFBFF"/>
</svg>
