<svg width="76" height="70" viewBox="0 0 76 70" fill="none" xmlns="http://www.w3.org/2000/svg">
<path d="M40.2401 52.3599H1.28013C0.560257 52.3599 0 52.9202 0 53.64V58.52C0 59.2399 0.560271 59.8001 1.28013 59.8001H41.1201C40.5599 57.9603 40.3199 56.0401 40.3199 54.0401C40.2401 53.4799 40.2401 52.9202 40.2401 52.3599L40.2401 52.3599Z" fill="white"/>
<path d="M52.4001 35.48V25.6401H45.0401V41.0001C46.9598 38.6804 49.52 36.7601 52.4001 35.48Z" fill="white"/>
<path d="M32.0001 25.6399H39.3601V48.7599H32.0001V25.6399Z" fill="white"/>
<path d="M18.9601 25.6399H26.3201V48.7599H18.9601V25.6399Z" fill="white"/>
<path d="M6.00013 25.6399H13.3601V48.7599H6.00013V25.6399Z" fill="white"/>
<path d="M1.28027 22.04H57.1203C57.8401 22.04 58.4004 21.4797 58.4004 20.7599V15.3999C58.4004 14.92 58.1604 14.5198 57.6805 14.2799L29.7605 0.59961C29.4408 0.439453 29.0407 0.439453 28.6406 0.59961L0.720558 14.2799C0.320444 14.5199 0.000686646 14.92 0.000686646 15.3999V20.7599C0.000686646 21.4797 0.560958 22.04 1.28082 22.04H1.28027ZM29.2003 7.79999C31.4403 7.79999 33.2801 9.63985 33.2801 11.8799C33.2801 14.1199 31.4403 15.9597 29.2003 15.9597C26.9603 15.9597 25.1204 14.1199 25.1204 11.8799C25.1204 9.63985 26.9603 7.79999 29.2003 7.79999Z" fill="white"/>
<path d="M60.4801 38.52C51.9198 38.52 44.9601 45.4799 44.9601 54.04C44.9601 62.6002 51.92 69.56 60.4801 69.56C69.0403 69.56 76.0001 62.6002 76.0001 54.04C76.0001 45.4799 69.0403 38.52 60.4801 38.52ZM68.32 52.0402L60.4003 60.3599C59.9204 60.8398 59.3601 61.0797 58.6403 61.0797C58.0002 61.0797 57.3601 60.8398 56.8803 60.3599L52.4004 55.64C51.5204 54.6802 51.5204 53.1602 52.4802 52.28C53.44 51.4 54.9601 51.4 55.8402 52.3598L58.5601 55.2398L64.7202 48.76C65.6002 47.8001 67.1204 47.8001 68.0802 48.6802C69.1204 49.5602 69.2002 51.0797 68.3202 52.0402H68.32Z" fill="white"/>
</svg>
