<svg width="60" height="70" viewBox="0 0 60 70" fill="none" xmlns="http://www.w3.org/2000/svg">
<path d="M1.91046 64.9817C10.9607 63.6307 20.2076 65.1681 28.3333 69.3751V35.0008C28.3333 34.0806 29.08 33.334 30.0002 33.334C30.9204 33.334 31.667 34.0806 31.667 35.0008V69.4123C39.8913 65.4513 49.0742 63.9167 58.1399 64.9887C58.6125 65.0467 59.0874 64.8972 59.4412 64.5785C59.7967 64.2627 59.9998 63.8096 59.9998 63.3336V26.6679C59.9998 25.9608 59.5534 25.3308 58.8865 25.0959C55.492 23.8955 51.9134 23.299 48.3128 23.3341C41.7213 23.4937 35.3363 25.669 30.0185 29.5674C25.2044 25.9441 19.4504 23.7806 13.4414 23.3341C9.25283 23.0641 5.05354 23.6639 1.10826 25.0959C0.443643 25.3325 -0.000556619 25.9619 5.23501e-07 26.6679V63.3336C5.23501e-07 63.8179 0.210943 64.2783 0.577572 64.5953C0.944758 64.9117 1.43082 65.0529 1.91016 64.982L1.91046 64.9817Z" fill="white"/>
<path d="M40.8333 10.8331C40.8333 16.8164 35.9835 21.6669 30.0002 21.6669C24.0169 21.6669 19.167 16.8164 19.167 10.8331C19.167 4.85043 24.0169 0 30.0002 0C35.9835 0 40.8333 4.85043 40.8333 10.8331Z" fill="white"/>
</svg>
