<svg width="18" height="18" viewBox="0 0 18 18" fill="none" xmlns="http://www.w3.org/2000/svg">
<g clip-path="url(#clip0_5_358)">
<path d="M1.5 6.74999H3.75V15.75H1.5C1.30109 15.75 1.11032 15.671 0.96967 15.5303C0.829018 15.3897 0.75 15.1989 0.75 15V7.49999C0.75 7.30108 0.829018 7.11031 0.96967 6.96966C1.11032 6.82901 1.30109 6.74999 1.5 6.74999ZM5.46975 5.78024L10.2697 0.980242C10.3335 0.916263 10.4183 0.877467 10.5084 0.870991C10.5985 0.864514 10.688 0.890792 10.7603 0.944992L11.4 1.42499C11.5777 1.55838 11.7119 1.74138 11.7857 1.95093C11.8595 2.16049 11.8696 2.3872 11.8148 2.60249L10.95 5.99999H15.75C16.1478 5.99999 16.5294 6.15803 16.8107 6.43933C17.092 6.72064 17.25 7.10217 17.25 7.49999V9.07799C17.2502 9.27401 17.212 9.46817 17.1375 9.64949L14.8162 15.2857C14.7596 15.4232 14.6634 15.5406 14.5399 15.6233C14.4164 15.706 14.2711 15.7501 14.1225 15.75H6C5.80109 15.75 5.61032 15.671 5.46967 15.5303C5.32902 15.3897 5.25 15.1989 5.25 15V6.31049C5.25004 6.1116 5.32909 5.92086 5.46975 5.78024Z" fill="white"/>
</g>
<defs>
<clipPath id="clip0_5_358">
<rect width="18" height="18" fill="white"/>
</clipPath>
</defs>
</svg>
