<svg width="106" height="38" viewBox="0 0 106 38" fill="none" xmlns="http://www.w3.org/2000/svg">
<path d="M36.9469 31V25.2906H40.3927V25.9039H37.6383V27.833H40.2142V28.4464H37.6383V30.3867H40.4373V31H36.9469ZM41.5496 31V26.7179H42.1852V27.387H42.241C42.3302 27.1584 42.4742 26.9809 42.6731 26.8545C42.8719 26.7263 43.1108 26.6622 43.3895 26.6622C43.672 26.6622 43.9072 26.7263 44.0949 26.8545C44.2844 26.9809 44.4322 27.1584 44.5381 27.387H44.5827C44.6924 27.1658 44.8569 26.9902 45.0762 26.8601C45.2955 26.7281 45.5585 26.6622 45.8651 26.6622C46.248 26.6622 46.5611 26.782 46.8046 27.0218C47.0481 27.2597 47.1698 27.6305 47.1698 28.1341V31H46.5119V28.1341C46.5119 27.8182 46.4255 27.5924 46.2526 27.4567C46.0798 27.321 45.8763 27.2532 45.6421 27.2532C45.341 27.2532 45.1078 27.3443 44.9424 27.5264C44.7769 27.7067 44.6942 27.9353 44.6942 28.2122V31H44.0252V28.0672C44.0252 27.8238 43.9462 27.6277 43.7882 27.479C43.6302 27.3285 43.4267 27.2532 43.1777 27.2532C43.0067 27.2532 42.8469 27.2987 42.6982 27.3898C42.5513 27.4809 42.4324 27.6072 42.3413 27.7689C42.2521 27.9288 42.2075 28.1137 42.2075 28.3237V31H41.5496ZM48.462 31V25.2906H49.1199V27.3982H49.1756C49.224 27.3238 49.2909 27.229 49.3764 27.1138C49.4637 26.9967 49.5882 26.8926 49.7499 26.8016C49.9135 26.7086 50.1346 26.6622 50.4134 26.6622C50.774 26.6622 51.0918 26.7523 51.3669 26.9326C51.6419 27.1129 51.8566 27.3684 52.0108 27.6992C52.1651 28.0301 52.2422 28.4203 52.2422 28.8701C52.2422 29.3236 52.1651 29.7167 52.0108 30.0494C51.8566 30.3802 51.6429 30.6367 51.3696 30.8188C51.0964 30.9991 50.7814 31.0892 50.4246 31.0892C50.1495 31.0892 49.9293 31.0437 49.7639 30.9526C49.5985 30.8597 49.4712 30.7547 49.3819 30.6376C49.2927 30.5186 49.224 30.4201 49.1756 30.3421H49.0976V31H48.462ZM49.1087 28.859C49.1087 29.1823 49.1561 29.4676 49.2509 29.7148C49.3457 29.9601 49.4842 30.1525 49.6663 30.2919C49.8484 30.4294 50.0715 30.4982 50.3354 30.4982C50.6104 30.4982 50.84 30.4257 51.024 30.2807C51.2098 30.1339 51.3492 29.9369 51.4421 29.6897C51.5369 29.4407 51.5843 29.1638 51.5843 28.859C51.5843 28.5579 51.5378 28.2865 51.4449 28.0449C51.3539 27.8015 51.2154 27.6091 51.0295 27.4678C50.8455 27.3247 50.6142 27.2532 50.3354 27.2532C50.0677 27.2532 49.8429 27.321 49.6607 27.4567C49.4786 27.5905 49.3411 27.7782 49.2481 28.0198C49.1552 28.2596 49.1087 28.5393 49.1087 28.859ZM53.2486 31V26.7179H53.8843V27.3647H53.9289C54.0069 27.1528 54.1482 26.9809 54.3526 26.849C54.557 26.717 54.7875 26.651 55.044 26.651C55.0923 26.651 55.1527 26.6519 55.2252 26.6538C55.2977 26.6557 55.3525 26.6585 55.3897 26.6622V27.3312C55.3674 27.3257 55.3163 27.3173 55.2363 27.3062C55.1583 27.2931 55.0756 27.2866 54.9882 27.2866C54.7801 27.2866 54.5942 27.3303 54.4307 27.4177C54.269 27.5032 54.1407 27.6221 54.0459 27.7745C53.953 27.925 53.9066 28.097 53.9066 28.2903V31H53.2486ZM57.4296 31.1004C57.1583 31.1004 56.912 31.0493 56.6909 30.947C56.4697 30.843 56.2941 30.6933 56.164 30.4982C56.0339 30.3012 55.9688 30.0633 55.9688 29.7845C55.9688 29.5392 56.0172 29.3403 56.1138 29.1879C56.2104 29.0337 56.3396 28.9129 56.5013 28.8255C56.663 28.7382 56.8414 28.6731 57.0366 28.6304C57.2336 28.5858 57.4315 28.5504 57.6304 28.5244C57.8906 28.491 58.1015 28.4659 58.2632 28.4492C58.4268 28.4306 58.5457 28.3999 58.62 28.3572C58.6962 28.3144 58.7343 28.2401 58.7343 28.1341V28.1118C58.7343 27.8368 58.6591 27.623 58.5085 27.4706C58.3598 27.3182 58.134 27.242 57.8311 27.242C57.517 27.242 57.2707 27.3108 57.0923 27.4483C56.9139 27.5859 56.7885 27.7327 56.716 27.8888L56.0915 27.6658C56.203 27.4056 56.3517 27.203 56.5375 27.058C56.7253 26.9112 56.9297 26.809 57.1509 26.7514C57.3739 26.6919 57.5932 26.6622 57.8088 26.6622C57.9463 26.6622 58.1043 26.6789 58.2827 26.7124C58.463 26.7439 58.6368 26.8099 58.804 26.9103C58.9732 27.0106 59.1135 27.1621 59.225 27.3647C59.3365 27.5673 59.3923 27.8386 59.3923 28.1787V31H58.7343V30.4201H58.7009C58.6563 30.5131 58.5819 30.6125 58.4779 30.7184C58.3738 30.8244 58.2353 30.9145 58.0625 30.9888C57.8896 31.0632 57.6787 31.1004 57.4296 31.1004ZM57.53 30.5093C57.7902 30.5093 58.0095 30.4582 58.1879 30.356C58.3682 30.2538 58.5039 30.1218 58.595 29.9601C58.6879 29.7985 58.7343 29.6284 58.7343 29.45V28.8478C58.7065 28.8813 58.6451 28.9119 58.5503 28.9398C58.4574 28.9658 58.3496 28.9891 58.227 29.0095C58.1062 29.0281 57.9881 29.0448 57.8729 29.0597C57.7595 29.0727 57.6675 29.0838 57.5969 29.0931C57.4259 29.1154 57.2661 29.1517 57.1174 29.2019C56.9706 29.2502 56.8516 29.3236 56.7606 29.4221C56.6714 29.5187 56.6268 29.6507 56.6268 29.818C56.6268 30.0466 56.7113 30.2194 56.8804 30.3365C57.0514 30.4517 57.268 30.5093 57.53 30.5093ZM62.3327 31.0892C61.9313 31.0892 61.5856 30.9944 61.2956 30.8049C61.0057 30.6153 60.7827 30.3542 60.6266 30.0215C60.4704 29.6888 60.3924 29.3087 60.3924 28.8813C60.3924 28.4464 60.4723 28.0626 60.6321 27.7299C60.7938 27.3954 61.0187 27.1342 61.3068 26.9465C61.5967 26.757 61.935 26.6622 62.3216 26.6622C62.6226 26.6622 62.894 26.7179 63.1356 26.8294C63.3772 26.941 63.5751 27.0971 63.7294 27.2978C63.8837 27.4985 63.9794 27.7327 64.0165 28.0003H63.3586C63.3084 27.8052 63.1969 27.6323 63.0241 27.4818C62.8531 27.3294 62.6226 27.2532 62.3327 27.2532C62.0762 27.2532 61.8513 27.3201 61.6581 27.4539C61.4666 27.5859 61.317 27.7726 61.2092 28.0143C61.1033 28.254 61.0503 28.5356 61.0503 28.859C61.0503 29.1898 61.1024 29.4779 61.2064 29.7232C61.3124 29.9685 61.461 30.159 61.6525 30.2947C61.8458 30.4304 62.0725 30.4982 62.3327 30.4982C62.5037 30.4982 62.6589 30.4685 62.7983 30.409C62.9377 30.3495 63.0557 30.264 63.1523 30.1525C63.249 30.041 63.3177 29.9072 63.3586 29.7511H64.0165C63.9794 30.0038 63.8874 30.2315 63.7405 30.4341C63.5956 30.6348 63.4032 30.7946 63.1635 30.9136C62.9256 31.0307 62.6487 31.0892 62.3327 31.0892ZM66.7737 31.0892C66.3611 31.0892 66.0052 30.9981 65.706 30.816C65.4086 30.632 65.1791 30.3755 65.0174 30.0466C64.8575 29.7157 64.7776 29.331 64.7776 28.8924C64.7776 28.4538 64.8575 28.0672 65.0174 27.7327C65.1791 27.3963 65.4039 27.1342 65.692 26.9465C65.9819 26.757 66.3202 26.6622 66.7068 26.6622C66.9298 26.6622 67.15 26.6993 67.3675 26.7737C67.5849 26.848 67.7829 26.9688 67.9613 27.1361C68.1397 27.3015 68.2819 27.5208 68.3878 27.794C68.4938 28.0672 68.5467 28.4036 68.5467 28.8032V29.082H65.246V28.5133H67.8777C67.8777 28.2717 67.8293 28.0561 67.7327 27.8665C67.6379 27.6769 67.5022 27.5273 67.3257 27.4177C67.151 27.308 66.9447 27.2532 66.7068 27.2532C66.4447 27.2532 66.218 27.3182 66.0265 27.4483C65.837 27.5766 65.6911 27.7438 65.5889 27.9501C65.4866 28.1564 65.4355 28.3776 65.4355 28.6136V28.9928C65.4355 29.3162 65.4913 29.5903 65.6028 29.8152C65.7162 30.0382 65.8732 30.2083 66.0739 30.3254C66.2747 30.4406 66.5079 30.4982 66.7737 30.4982C66.9465 30.4982 67.1026 30.474 67.242 30.4257C67.3833 30.3755 67.505 30.3012 67.6072 30.2027C67.7095 30.1023 67.7884 29.9778 67.8442 29.8291L68.4798 30.0075C68.4129 30.2231 68.3005 30.4127 68.1425 30.5763C67.9845 30.7379 67.7894 30.8643 67.5571 30.9554C67.3247 31.0446 67.0636 31.0892 66.7737 31.0892ZM71.8447 31V25.2906H75.2904V25.9039H72.5361V27.833H75.112V28.4464H72.5361V30.3867H75.335V31H71.8447ZM79.9489 26.7179L78.3654 31H77.6963L76.1128 26.7179H76.8265L78.0086 30.1302H78.0532L79.2352 26.7179H79.9489ZM82.4593 31.0892C82.0467 31.0892 81.6908 30.9981 81.3916 30.816C81.0942 30.632 80.8647 30.3755 80.703 30.0466C80.5431 29.7157 80.4632 29.331 80.4632 28.8924C80.4632 28.4538 80.5431 28.0672 80.703 27.7327C80.8647 27.3963 81.0895 27.1342 81.3776 26.9465C81.6675 26.757 82.0058 26.6622 82.3924 26.6622C82.6154 26.6622 82.8356 26.6993 83.0531 26.7737C83.2705 26.848 83.4685 26.9688 83.6469 27.1361C83.8253 27.3015 83.9675 27.5208 84.0734 27.794C84.1794 28.0672 84.2323 28.4036 84.2323 28.8032V29.082H80.9316V28.5133H83.5633C83.5633 28.2717 83.5149 28.0561 83.4183 27.8665C83.3235 27.6769 83.1878 27.5273 83.0113 27.4177C82.8366 27.308 82.6303 27.2532 82.3924 27.2532C82.1303 27.2532 81.9036 27.3182 81.7122 27.4483C81.5226 27.5766 81.3767 27.7438 81.2745 27.9501C81.1722 28.1564 81.1211 28.3776 81.1211 28.6136V28.9928C81.1211 29.3162 81.1769 29.5903 81.2884 29.8152C81.4018 30.0382 81.5588 30.2083 81.7595 30.3254C81.9603 30.4406 82.1935 30.4982 82.4593 30.4982C82.6321 30.4982 82.7882 30.474 82.9276 30.4257C83.0689 30.3755 83.1906 30.3012 83.2928 30.2027C83.3951 30.1023 83.474 29.9778 83.5298 29.8291L84.1654 30.0075C84.0985 30.2231 83.9861 30.4127 83.8281 30.5763C83.6701 30.7379 83.475 30.8643 83.2427 30.9554C83.0103 31.0446 82.7492 31.0892 82.4593 31.0892ZM85.2332 31V26.7179H85.8688V27.3647H85.9134C85.9914 27.1528 86.1327 26.9809 86.3371 26.849C86.5416 26.717 86.772 26.651 87.0285 26.651C87.0768 26.651 87.1372 26.6519 87.2097 26.6538C87.2822 26.6557 87.337 26.6585 87.3742 26.6622V27.3312C87.3519 27.3257 87.3008 27.3173 87.2209 27.3062C87.1428 27.2931 87.0601 27.2866 86.9727 27.2866C86.7646 27.2866 86.5787 27.3303 86.4152 27.4177C86.2535 27.5032 86.1253 27.6221 86.0305 27.7745C85.9375 27.925 85.8911 28.097 85.8911 28.2903V31H85.2332ZM88.7082 32.6058C88.5966 32.6058 88.4972 32.5965 88.4099 32.5779C88.3225 32.5612 88.2621 32.5444 88.2287 32.5277L88.3959 31.9479C88.5558 31.9887 88.697 32.0036 88.8197 31.9925C88.9423 31.9813 89.0511 31.9265 89.1458 31.828C89.2425 31.7313 89.3308 31.5743 89.4107 31.3568L89.5333 31.0223L87.9499 26.7179H88.6636L89.8456 30.1302H89.8902L91.0722 26.7179H91.7859L89.9682 31.6245C89.8865 31.8456 89.7852 32.0287 89.6644 32.1737C89.5436 32.3205 89.4033 32.4292 89.2434 32.4998C89.0854 32.5705 88.907 32.6058 88.7082 32.6058ZM94.2406 31.0892C93.854 31.0892 93.5148 30.9972 93.223 30.8132C92.9331 30.6292 92.7063 30.3718 92.5428 30.041C92.3811 29.7102 92.3002 29.3236 92.3002 28.8813C92.3002 28.4352 92.3811 28.0459 92.5428 27.7132C92.7063 27.3805 92.9331 27.1222 93.223 26.9382C93.5148 26.7542 93.854 26.6622 94.2406 26.6622C94.6271 26.6622 94.9654 26.7542 95.2553 26.9382C95.5471 27.1222 95.7739 27.3805 95.9356 27.7132C96.0991 28.0459 96.1809 28.4352 96.1809 28.8813C96.1809 29.3236 96.0991 29.7102 95.9356 30.041C95.7739 30.3718 95.5471 30.6292 95.2553 30.8132C94.9654 30.9972 94.6271 31.0892 94.2406 31.0892ZM94.2406 30.4982C94.5342 30.4982 94.7758 30.4229 94.9654 30.2724C95.155 30.1218 95.2953 29.9239 95.3864 29.6786C95.4774 29.4333 95.523 29.1675 95.523 28.8813C95.523 28.5951 95.4774 28.3284 95.3864 28.0812C95.2953 27.834 95.155 27.6342 94.9654 27.4818C94.7758 27.3294 94.5342 27.2532 94.2406 27.2532C93.9469 27.2532 93.7053 27.3294 93.5157 27.4818C93.3262 27.6342 93.1858 27.834 93.0948 28.0812C93.0037 28.3284 92.9582 28.5951 92.9582 28.8813C92.9582 29.1675 93.0037 29.4333 93.0948 29.6786C93.1858 29.9239 93.3262 30.1218 93.5157 30.2724C93.7053 30.4229 93.9469 30.4982 94.2406 30.4982ZM97.8431 28.4241V31H97.1852V26.7179H97.8208V27.387H97.8766C97.9769 27.1696 98.1293 26.9948 98.3338 26.8629C98.5382 26.7291 98.8021 26.6622 99.1255 26.6622C99.4154 26.6622 99.6691 26.7216 99.8866 26.8406C100.104 26.9577 100.273 27.1361 100.394 27.3758C100.515 27.6137 100.575 27.9148 100.575 28.2791V31H99.9172V28.3237C99.9172 27.9873 99.8299 27.7253 99.6552 27.5375C99.4805 27.348 99.2407 27.2532 98.9359 27.2532C98.7259 27.2532 98.5382 27.2987 98.3728 27.3898C98.2092 27.4809 98.0801 27.6137 97.9853 27.7884C97.8905 27.9631 97.8431 28.175 97.8431 28.4241ZM103.573 31.0892C103.16 31.0892 102.804 30.9981 102.505 30.816C102.208 30.632 101.978 30.3755 101.816 30.0466C101.657 29.7157 101.577 29.331 101.577 28.8924C101.577 28.4538 101.657 28.0672 101.816 27.7327C101.978 27.3963 102.203 27.1342 102.491 26.9465C102.781 26.757 103.119 26.6622 103.506 26.6622C103.729 26.6622 103.949 26.6993 104.167 26.7737C104.384 26.848 104.582 26.9688 104.76 27.1361C104.939 27.3015 105.081 27.5208 105.187 27.794C105.293 28.0672 105.346 28.4036 105.346 28.8032V29.082H102.045V28.5133H104.677C104.677 28.2717 104.628 28.0561 104.532 27.8665C104.437 27.6769 104.301 27.5273 104.125 27.4177C103.95 27.308 103.744 27.2532 103.506 27.2532C103.244 27.2532 103.017 27.3182 102.826 27.4483C102.636 27.5766 102.49 27.7438 102.388 27.9501C102.286 28.1564 102.235 28.3776 102.235 28.6136V28.9928C102.235 29.3162 102.29 29.5903 102.402 29.8152C102.515 30.0382 102.672 30.2083 102.873 30.3254C103.074 30.4406 103.307 30.4982 103.573 30.4982C103.746 30.4982 103.902 30.474 104.041 30.4257C104.182 30.3755 104.304 30.3012 104.406 30.2027C104.509 30.1023 104.588 29.9778 104.643 29.8291L105.279 30.0075C105.212 30.2231 105.1 30.4127 104.942 30.5763C104.784 30.7379 104.588 30.8643 104.356 30.9554C104.124 31.0446 103.863 31.0892 103.573 31.0892Z" fill="#121212"/>
<path d="M5.46284 23.0571C5.91528 23.6383 6.36773 24.2195 6.82017 24.7965C6.91979 24.922 6.93227 25.0432 6.85756 25.1854C6.69153 25.5032 6.52963 25.8209 6.3719 26.1429C5.95681 26.9917 5.56249 27.8489 5.13081 28.6893C4.79044 29.3541 4.51231 30.044 4.42929 30.7757C4.31307 31.8001 4.3795 32.8287 4.76138 33.803C5.4006 35.4295 6.44245 36.7215 7.96579 37.5912C8.28126 37.771 8.27295 37.7668 8.47634 37.4532C9.41857 36.0065 10.3608 34.5598 11.3114 33.1172C11.6227 32.6448 11.9381 32.1681 12.2453 31.6914L5.46284 23.0571Z" fill="#420789"/>
<path d="M14.3002 21.4496C13.8395 20.4336 13.2417 19.4761 12.6731 18.5102C12.0588 17.4691 11.4029 16.4489 10.7679 15.4203C10.1494 14.4168 9.53094 13.4133 8.91247 12.4098C8.2857 11.3979 7.65891 10.386 7.03214 9.36999C6.52159 8.53792 6.02348 7.70166 5.51293 6.86959C4.93181 5.92463 4.34656 4.98384 3.76129 4.04306C3.39187 3.44932 3.02663 2.85558 2.6489 2.24512C2.59079 2.27857 2.56589 2.28693 2.54929 2.30784C1.98478 3.03119 1.52399 3.81727 1.15457 4.6577C0.772696 5.52323 0.461385 6.41802 0.324408 7.3588C0.204034 8.18251 0.0753712 9.0104 0.0255614 9.84247C-0.03255 10.7498 0.00480127 11.6655 0.174985 12.5645C0.311962 13.2711 0.42403 13.9861 0.585911 14.6885C0.685531 15.1276 0.82255 15.5583 0.992734 15.9764C1.32065 16.7875 1.65267 17.5987 2.04285 18.3806C2.5368 19.3674 3.22168 20.2287 3.91072 21.0901C4.43372 21.7423 4.94842 22.403 5.46312 23.0594L12.2041 31.7648C12.8184 30.8115 13.4451 29.7745 13.9225 28.7376C14.3417 27.8303 14.6738 26.8978 14.8606 25.9027C15.1511 24.3431 14.9394 22.8546 14.3002 21.4496Z" fill="#A884D2"/>
<path d="M30.9625 9.12804C30.9334 8.53848 30.8545 8.02419 30.7508 7.43463C30.7342 7.34682 30.7134 7.25902 30.6968 7.16703C30.647 6.87016 30.5515 6.49384 30.4685 6.20952C30.1572 5.16838 29.7587 4.1607 29.19 3.22828C28.9493 2.83524 28.6754 2.45893 28.3931 2.03662C27.8203 2.9565 27.2848 3.80111 26.7577 4.65409C26.1143 5.69522 25.4834 6.74472 24.8442 7.79004C24.3336 8.62211 23.8189 9.45418 23.3084 10.2862C22.6941 11.2856 22.0797 12.2849 21.4612 13.28C20.8884 14.2041 20.2907 15.1156 19.7386 16.0522L24.097 24.9917C24.0804 24.8998 24.097 24.8078 24.18 24.7074C24.5204 24.2935 24.8359 23.8628 25.1638 23.4405C26.023 22.3408 26.8864 21.2411 27.7456 20.1415C28.4346 19.2551 29.0116 18.2934 29.4557 17.2648C29.7753 16.5247 30.0908 15.7721 30.3066 14.9943C30.5432 14.1456 30.6595 13.2633 30.8296 12.3936C31.0413 11.3148 31.0164 10.2193 30.9625 9.12804Z" fill="#420789"/>
<g opacity="0.55" filter="url(#filter0_d_155_420)">
<path d="M24.0458 24.9266L24.7583 23.9375L19.7414 16.0581L24.0458 24.9266Z" fill="#121212" fill-opacity="0.8" shape-rendering="crispEdges"/>
</g>
<path d="M25.4626 27.9281C25.3008 27.5895 25.1762 27.2341 25.0144 26.8954C24.7321 26.3016 24.4374 25.7204 24.1468 25.1309C24.1261 25.0849 24.1095 25.0431 24.1012 25.0013L19.7428 16.0617C20.2949 15.1251 20.8926 14.2178 21.4654 13.2896C20.8386 14.3014 20.1786 15.2924 19.5851 16.3251C18.8919 17.5335 18.2361 18.7628 17.5927 19.9963C16.9203 21.2883 16.4097 22.643 16.1233 24.0856C15.7995 25.7288 16.0527 27.2717 16.858 28.6933C17.5595 29.9268 18.3731 31.0934 19.1451 32.285C19.8258 33.3345 20.519 34.3715 21.2039 35.4126C21.7061 36.1778 22.2126 36.9471 22.7231 37.7248C22.939 37.5952 23.1423 37.4865 23.3291 37.3569C23.5408 37.2147 23.7525 37.0642 23.9476 36.8969C25.5498 35.5213 26.5335 33.8363 26.5916 31.662C26.6166 30.6627 26.3384 29.7512 25.9566 28.8397C25.7988 28.5344 25.6121 28.2376 25.4626 27.9281Z" fill="#A884D2"/>
<path opacity="0.3" d="M12.1729 31.7089L6.93038 25.0063L6.44062 26.0182L12.1729 31.7089Z" fill="#121212" fill-opacity="0.8"/>
<path d="M36.8015 11.963C36.8015 9.95934 37.3438 8.36444 38.4284 7.17829C39.513 5.99214 40.9824 5.39906 42.8364 5.39906C44.5622 5.39906 45.9514 5.97878 47.004 7.13822C48.0566 8.29765 48.5828 9.80706 48.5828 11.6664C48.5828 13.6808 48.0432 15.2783 46.9639 16.4591C46.7074 16.737 46.4323 16.9828 46.1384 17.1965L49.6247 19.697H46.9879L44.6317 17.9498C44.0226 18.1368 43.3574 18.2304 42.636 18.2304C40.8728 18.2304 39.4596 17.6506 38.3963 16.4912C37.3331 15.3318 36.8015 13.8223 36.8015 11.963ZM38.4845 11.8347C38.4845 13.3361 38.8665 14.541 39.6306 15.4493C40.4 16.3523 41.4018 16.8038 42.636 16.8038C43.9611 16.8038 45.0003 16.371 45.7537 15.5054C46.5124 14.6345 46.8918 13.419 46.8918 11.8588C46.8918 10.2559 46.5204 9.01896 45.7777 8.14805C45.0404 7.27714 44.0279 6.84168 42.7402 6.84168C41.4739 6.84168 40.4481 7.30118 39.6626 8.22018C38.8772 9.13918 38.4845 10.344 38.4845 11.8347ZM57.9278 9.15788L54.4174 18.022H52.8305L49.4965 9.15788H51.2116L53.3755 15.4894C53.5519 15.997 53.656 16.4217 53.6881 16.7637H53.7282C53.7816 16.3149 53.8751 15.9008 54.0087 15.5214L56.2768 9.15788H57.9278ZM59.2181 6.03221C59.2181 5.75437 59.3116 5.52195 59.4987 5.33494C59.691 5.14259 59.9261 5.04642 60.2039 5.04642C60.4871 5.04642 60.7249 5.13992 60.9172 5.32693C61.1149 5.51394 61.2138 5.74903 61.2138 6.03221C61.2138 6.31005 61.1149 6.54247 60.9172 6.72948C60.7249 6.91114 60.4871 7.00197 60.2039 7.00197C59.9208 7.00197 59.6857 6.91114 59.4987 6.72948C59.3116 6.54247 59.2181 6.31005 59.2181 6.03221ZM59.4025 18.022V9.15788H60.9733V18.022H59.4025ZM65.3573 16.7717V22.1014H63.7864V9.15788H65.3573V10.6887H65.3893C66.0839 9.52922 67.0991 8.9495 68.4349 8.9495C69.5676 8.9495 70.4545 9.34756 71.0957 10.1437C71.7422 10.9344 72.0655 11.9977 72.0655 13.3335C72.0655 14.8081 71.6995 15.9943 70.9675 16.8919C70.2408 17.7842 69.2604 18.2304 68.0261 18.2304C66.8881 18.2304 66.0091 17.7441 65.3893 16.7717H65.3573ZM65.3493 14.3673C65.3493 15.0886 65.5817 15.6978 66.0465 16.1947C66.5114 16.6862 67.0938 16.932 67.7937 16.932C68.6272 16.932 69.2791 16.6114 69.7493 15.9702C70.2194 15.3291 70.4545 14.4421 70.4545 13.3094C70.4545 12.353 70.2355 11.605 69.7973 11.0653C69.3592 10.5204 68.7608 10.2479 68.0021 10.2479C67.2274 10.2479 66.5915 10.523 66.0946 11.0734C65.5977 11.6237 65.3493 12.329 65.3493 13.1892V14.3673ZM74.2615 18.022V4.90216H75.8323V18.022H74.2615ZM85.8665 13.9907H79.6633C79.69 14.9364 79.9491 15.6684 80.4407 16.1866C80.9322 16.6996 81.6188 16.956 82.5004 16.956C83.4942 16.956 84.4052 16.6381 85.2334 16.0023V17.4049C84.4533 17.9552 83.4194 18.2304 82.1317 18.2304C80.8494 18.2304 79.8476 17.8243 79.1263 17.0121C78.4103 16.2 78.0523 15.0726 78.0523 13.63C78.0523 12.2729 78.445 11.1535 79.2305 10.2719C80.0212 9.3903 81.0017 8.9495 82.1718 8.9495C83.3312 8.9495 84.2369 9.32352 84.8887 10.0715C85.5406 10.8142 85.8665 11.8561 85.8665 13.1972V13.9907ZM84.2957 12.7324C84.2903 11.9309 84.1006 11.3111 83.7266 10.873C83.3526 10.4349 82.8263 10.2158 82.1478 10.2158C81.5226 10.2158 80.9803 10.4482 80.5208 10.9131C80.0667 11.3779 79.7808 11.9843 79.6633 12.7324H84.2957Z" fill="#420789"/>
<defs>
<filter id="filter0_d_155_420" x="14.2838" y="16.0581" width="15.9321" height="19.7839" filterUnits="userSpaceOnUse" color-interpolation-filters="sRGB">
<feFlood flood-opacity="0" result="BackgroundImageFix"/>
<feColorMatrix in="SourceAlpha" type="matrix" values="0 0 0 0 0 0 0 0 0 0 0 0 0 0 0 0 0 0 127 0" result="hardAlpha"/>
<feOffset dy="5.45761"/>
<feGaussianBlur stdDeviation="2.72881"/>
<feComposite in2="hardAlpha" operator="out"/>
<feColorMatrix type="matrix" values="0 0 0 0 0 0 0 0 0 0 0 0 0 0 0 0 0 0 0.25 0"/>
<feBlend mode="normal" in2="BackgroundImageFix" result="effect1_dropShadow_155_420"/>
<feBlend mode="normal" in="SourceGraphic" in2="effect1_dropShadow_155_420" result="shape"/>
</filter>
</defs>
</svg>
