<svg width="155" height="54" viewBox="0 0 155 54" fill="none" xmlns="http://www.w3.org/2000/svg">
<g filter="url(#filter0_d_272_420)">
<path d="M76.1655 42.16L72.3895 38.32C72.1548 38.3413 71.9202 38.352 71.6855 38.352C71.4508 38.3733 71.2162 38.384 70.9815 38.384C68.7202 38.384 66.7575 37.968 65.0935 37.136C63.4508 36.304 62.1815 35.0453 61.2855 33.36C60.4108 31.6747 59.9735 29.5627 59.9735 27.024C59.9735 24.464 60.4108 22.352 61.2855 20.688C62.1815 19.0027 63.4508 17.744 65.0935 16.912C66.7575 16.08 68.7202 15.664 70.9815 15.664C73.2855 15.664 75.2588 16.08 76.9015 16.912C78.5442 17.744 79.8028 19.0027 80.6775 20.688C81.5735 22.352 82.0215 24.464 82.0215 27.024C82.0215 29.776 81.4988 32.016 80.4535 33.744C79.4295 35.472 77.9788 36.72 76.1015 37.488L80.9335 42.16H76.1655ZM70.9815 35.344C72.1548 35.344 73.1895 35.184 74.0855 34.864C75.0028 34.544 75.7708 34.0533 76.3895 33.392C77.0295 32.7307 77.5095 31.8987 77.8295 30.896C78.1708 29.8933 78.3415 28.7307 78.3415 27.408V26.704C78.3415 25.3387 78.1708 24.1547 77.8295 23.152C77.5095 22.1493 77.0295 21.3173 76.3895 20.656C75.7708 19.9947 75.0028 19.504 74.0855 19.184C73.1895 18.864 72.1548 18.704 70.9815 18.704C69.8295 18.704 68.7948 18.864 67.8775 19.184C66.9815 19.504 66.2135 19.9947 65.5735 20.656C64.9548 21.3173 64.4855 22.1493 64.1655 23.152C63.8455 24.1547 63.6855 25.3387 63.6855 26.704V27.408C63.6855 28.7307 63.8455 29.8933 64.1655 30.896C64.4855 31.8987 64.9548 32.7307 65.5735 33.392C66.2135 34.0533 66.9815 34.544 67.8775 34.864C68.7948 35.184 69.8295 35.344 70.9815 35.344ZM90.0905 38L83.8505 21.168H87.3385L90.2505 29.2C90.3785 29.584 90.5385 30.0853 90.7305 30.704C90.9225 31.3013 91.1145 31.92 91.3065 32.56C91.4985 33.2 91.6692 33.776 91.8185 34.288H91.9785C92.1065 33.7973 92.2558 33.2427 92.4265 32.624C92.6185 31.984 92.8105 31.3547 93.0025 30.736C93.1945 30.1173 93.3652 29.6053 93.5145 29.2L96.3945 21.168H99.7865L93.5145 38H90.0905ZM102.207 18.256V14.864H105.535V18.256H102.207ZM102.207 38V21.168H105.535V38H102.207ZM109.832 43.536V21.168H112.552L112.84 23.472H113.064C113.64 22.576 114.376 21.904 115.272 21.456C116.168 21.008 117.17 20.784 118.28 20.784C119.666 20.784 120.85 21.0933 121.832 21.712C122.834 22.3307 123.602 23.2907 124.135 24.592C124.669 25.8933 124.936 27.5787 124.936 29.648C124.936 31.6533 124.658 33.3067 124.104 34.608C123.57 35.888 122.813 36.8373 121.832 37.456C120.85 38.0747 119.72 38.384 118.44 38.384C117.693 38.384 117 38.2987 116.36 38.128C115.72 37.9573 115.144 37.6907 114.632 37.328C114.141 36.9653 113.714 36.5067 113.352 35.952H113.16V43.536H109.832ZM117.288 35.504C118.29 35.504 119.101 35.312 119.72 34.928C120.338 34.5227 120.786 33.904 121.064 33.072C121.362 32.24 121.512 31.184 121.512 29.904V29.328C121.512 27.984 121.362 26.896 121.064 26.064C120.765 25.232 120.306 24.624 119.688 24.24C119.09 23.856 118.312 23.664 117.352 23.664C116.37 23.664 115.57 23.888 114.952 24.336C114.333 24.7627 113.874 25.4027 113.576 26.256C113.298 27.1093 113.16 28.144 113.16 29.36V29.808C113.16 30.8107 113.256 31.6747 113.448 32.4C113.64 33.1253 113.917 33.7227 114.28 34.192C114.642 34.64 115.08 34.9707 115.592 35.184C116.104 35.3973 116.669 35.504 117.288 35.504ZM128.363 38V14.864H131.691V38H128.363ZM142.964 38.384C141.236 38.384 139.785 38.0747 138.612 37.456C137.46 36.816 136.585 35.8453 135.988 34.544C135.39 33.2427 135.092 31.5893 135.092 29.584C135.092 27.5573 135.39 25.904 135.988 24.624C136.585 23.3227 137.47 22.3627 138.644 21.744C139.817 21.104 141.278 20.784 143.028 20.784C144.628 20.784 145.961 21.0933 147.028 21.712C148.116 22.3093 148.937 23.2267 149.492 24.464C150.046 25.7013 150.324 27.2587 150.324 29.136V30.416H138.516C138.558 31.6107 138.74 32.6133 139.06 33.424C139.38 34.2133 139.86 34.8 140.5 35.184C141.161 35.5467 141.993 35.728 142.996 35.728C143.614 35.728 144.169 35.6533 144.66 35.504C145.15 35.3333 145.566 35.0987 145.908 34.8C146.249 34.48 146.516 34.1067 146.708 33.68C146.9 33.232 146.996 32.7307 146.996 32.176H150.26C150.26 33.1787 150.089 34.064 149.748 34.832C149.406 35.6 148.905 36.2507 148.244 36.784C147.604 37.296 146.836 37.6907 145.94 37.968C145.044 38.2453 144.052 38.384 142.964 38.384ZM138.58 27.984H146.836C146.836 27.152 146.74 26.4587 146.548 25.904C146.377 25.328 146.121 24.8587 145.78 24.496C145.438 24.1333 145.033 23.8773 144.564 23.728C144.094 23.5573 143.561 23.472 142.964 23.472C142.068 23.472 141.3 23.632 140.66 23.952C140.041 24.272 139.561 24.7733 139.22 25.456C138.878 26.1173 138.665 26.96 138.58 27.984Z" fill="white"/>
</g>
<g filter="url(#filter1_d_272_420)">
<path d="M11.0489 26.9258C11.6327 27.6703 12.2165 28.4147 12.8003 29.1539C12.9288 29.3145 12.9449 29.4699 12.8485 29.652C12.6343 30.059 12.4254 30.4661 12.2219 30.8785C11.6863 31.9657 11.1775 33.0637 10.6204 34.1402C10.1813 34.9918 9.82238 35.8755 9.71526 36.8128C9.5653 38.125 9.65102 39.4426 10.1438 40.6905C10.9686 42.774 12.3129 44.429 14.2785 45.543C14.6856 45.7733 14.6749 45.768 14.9373 45.3663C16.1531 43.5131 17.3689 41.66 18.5954 39.8122C18.9971 39.2069 19.4042 38.5964 19.8005 37.9858L11.0489 26.9258Z" fill="#420789"/>
<path d="M22.452 24.8671C21.8575 23.5656 21.0863 22.3391 20.3525 21.1019C19.5598 19.7683 18.7136 18.4614 17.8941 17.1439C17.0961 15.8584 16.2981 14.573 15.5001 13.2876C14.6913 11.9915 13.8825 10.6953 13.0738 9.39384C12.415 8.32801 11.7723 7.25682 11.1135 6.19099C10.3637 4.98055 9.60851 3.77547 8.85332 2.57039C8.37664 1.80984 7.90536 1.0493 7.41797 0.267334C7.34299 0.310181 7.31085 0.320894 7.28943 0.347674C6.56102 1.27425 5.96646 2.28116 5.48978 3.35771C4.99703 4.46638 4.59534 5.61255 4.41859 6.81764C4.26327 7.87276 4.09725 8.93323 4.03298 9.99906C3.958 11.1613 4.0062 12.3342 4.22579 13.4858C4.40253 14.3909 4.54714 15.3068 4.75602 16.2066C4.88456 16.769 5.06136 17.3206 5.28096 17.8562C5.70408 18.8953 6.1325 19.9343 6.63596 20.9359C7.27331 22.1999 8.15704 23.3032 9.04613 24.4065C9.72097 25.242 10.3851 26.0883 11.0492 26.9292L19.7473 38.0802C20.54 36.8591 21.3487 35.5308 21.9646 34.2025C22.5056 33.0403 22.9341 31.8459 23.1751 30.5712C23.55 28.5734 23.2769 26.6667 22.452 24.8671Z" fill="#A884D2"/>
<path d="M43.9519 9.08366C43.9144 8.32847 43.8126 7.66969 43.6787 6.91451C43.6573 6.80203 43.6305 6.68956 43.6091 6.57173C43.5448 6.19146 43.4216 5.70942 43.3145 5.34522C42.9128 4.01159 42.3986 2.72081 41.6649 1.52644C41.3542 1.02298 41.0008 0.540949 40.6366 0C39.8974 1.1783 39.2065 2.2602 38.5263 3.35281C37.6961 4.68644 36.882 6.03078 36.0572 7.36976C35.3984 8.43559 34.7343 9.50142 34.0755 10.5673C33.2829 11.8473 32.4902 13.1274 31.6921 14.4021C30.953 15.5858 30.1817 16.7534 29.4694 17.9531L35.0931 29.4041C35.0717 29.2862 35.0932 29.1684 35.2003 29.0399C35.6395 28.5096 36.0465 27.958 36.4696 27.417C37.5783 26.0084 38.6923 24.5998 39.801 23.1912C40.6901 22.0557 41.4346 20.8239 42.0076 19.5063C42.4201 18.5583 42.8271 17.5942 43.1056 16.598C43.4109 15.5108 43.5609 14.3807 43.7805 13.2666C44.0536 11.8848 44.0215 10.4816 43.9519 9.08366Z" fill="#420789"/>
<g opacity="0.55" filter="url(#filter2_d_272_420)">
<path d="M35.0271 29.3209L35.9465 28.0539L29.473 17.9609L35.0271 29.3209Z" fill="#121212" fill-opacity="0.8" shape-rendering="crispEdges"/>
</g>
<path d="M36.8553 33.1654C36.6464 32.7316 36.4857 32.2763 36.2768 31.8425C35.9126 31.082 35.5323 30.3375 35.1574 29.5823C35.1306 29.5234 35.1092 29.4698 35.0985 29.4163L29.4748 17.9653C30.1871 16.7656 30.9584 15.6033 31.6975 14.4143C30.8888 15.7104 30.0371 16.9798 29.2712 18.3027C28.3768 19.8506 27.5306 21.4252 26.7004 23.0052C25.8328 24.6602 25.174 26.3955 24.8044 28.2433C24.3867 30.3482 24.7134 32.3245 25.7524 34.1456C26.6576 35.7256 27.7073 37.2199 28.7036 38.7463C29.5819 40.0906 30.4763 41.4189 31.3601 42.7525C32.0081 43.7327 32.6616 44.7182 33.3204 45.7144C33.5989 45.5483 33.8613 45.4091 34.1023 45.2431C34.3755 45.0609 34.6486 44.8681 34.9003 44.6539C36.9677 42.8918 38.2371 40.7334 38.3121 37.9483C38.3442 36.6682 37.9853 35.5006 37.4926 34.333C37.2891 33.942 37.0481 33.5618 36.8553 33.1654Z" fill="#A884D2"/>
<path opacity="0.3" d="M19.707 38.0082L12.9425 29.4226L12.3105 30.7187L19.707 38.0082Z" fill="#121212" fill-opacity="0.8"/>
</g>
<defs>
<filter id="filter0_d_272_420" x="55.9735" y="14.864" width="98.3503" height="36.6719" filterUnits="userSpaceOnUse" color-interpolation-filters="sRGB">
<feFlood flood-opacity="0" result="BackgroundImageFix"/>
<feColorMatrix in="SourceAlpha" type="matrix" values="0 0 0 0 0 0 0 0 0 0 0 0 0 0 0 0 0 0 127 0" result="hardAlpha"/>
<feOffset dy="4"/>
<feGaussianBlur stdDeviation="2"/>
<feComposite in2="hardAlpha" operator="out"/>
<feColorMatrix type="matrix" values="0 0 0 0 0 0 0 0 0 0 0 0 0 0 0 0 0 0 0.25 0"/>
<feBlend mode="normal" in2="BackgroundImageFix" result="effect1_dropShadow_272_420"/>
<feBlend mode="normal" in="SourceGraphic" in2="effect1_dropShadow_272_420" result="shape"/>
</filter>
<filter id="filter1_d_272_420" x="0" y="0" width="48.0003" height="53.7144" filterUnits="userSpaceOnUse" color-interpolation-filters="sRGB">
<feFlood flood-opacity="0" result="BackgroundImageFix"/>
<feColorMatrix in="SourceAlpha" type="matrix" values="0 0 0 0 0 0 0 0 0 0 0 0 0 0 0 0 0 0 127 0" result="hardAlpha"/>
<feOffset dy="4"/>
<feGaussianBlur stdDeviation="2"/>
<feComposite in2="hardAlpha" operator="out"/>
<feColorMatrix type="matrix" values="0 0 0 0 0 0 0 0 0 0 0 0 0 0 0 0 0 0 0.25 0"/>
<feBlend mode="normal" in2="BackgroundImageFix" result="effect1_dropShadow_272_420"/>
<feBlend mode="normal" in="SourceGraphic" in2="effect1_dropShadow_272_420" result="shape"/>
</filter>
<filter id="filter2_d_272_420" x="24.0154" y="17.9609" width="17.3887" height="22.2751" filterUnits="userSpaceOnUse" color-interpolation-filters="sRGB">
<feFlood flood-opacity="0" result="BackgroundImageFix"/>
<feColorMatrix in="SourceAlpha" type="matrix" values="0 0 0 0 0 0 0 0 0 0 0 0 0 0 0 0 0 0 127 0" result="hardAlpha"/>
<feOffset dy="5.45761"/>
<feGaussianBlur stdDeviation="2.72881"/>
<feComposite in2="hardAlpha" operator="out"/>
<feColorMatrix type="matrix" values="0 0 0 0 0 0 0 0 0 0 0 0 0 0 0 0 0 0 0.25 0"/>
<feBlend mode="normal" in2="BackgroundImageFix" result="effect1_dropShadow_272_420"/>
<feBlend mode="normal" in="SourceGraphic" in2="effect1_dropShadow_272_420" result="shape"/>
</filter>
</defs>
</svg>
