<svg width="48" height="54" viewBox="0 0 48 54" fill="none" xmlns="http://www.w3.org/2000/svg">
<g filter="url(#filter0_d_19_481)">
<path d="M11.0489 26.9258C11.6327 27.6703 12.2165 28.4147 12.8003 29.1539C12.9288 29.3145 12.9449 29.4699 12.8485 29.652C12.6343 30.059 12.4254 30.4661 12.2219 30.8785C11.6863 31.9657 11.1775 33.0637 10.6204 34.1402C10.1813 34.9918 9.82238 35.8755 9.71526 36.8128C9.5653 38.125 9.65102 39.4426 10.1438 40.6905C10.9686 42.774 12.3129 44.429 14.2785 45.543C14.6856 45.7733 14.6749 45.768 14.9373 45.3663C16.1531 43.5131 17.3689 41.66 18.5954 39.8122C18.9971 39.2069 19.4042 38.5964 19.8005 37.9858L11.0489 26.9258Z" fill="#420789"/>
<path d="M22.452 24.8671C21.8575 23.5656 21.0863 22.3391 20.3525 21.1019C19.5598 19.7683 18.7136 18.4614 17.8941 17.1439C17.0961 15.8584 16.2981 14.573 15.5001 13.2876C14.6913 11.9915 13.8825 10.6953 13.0738 9.39384C12.415 8.32801 11.7723 7.25682 11.1135 6.19099C10.3637 4.98055 9.60851 3.77547 8.85332 2.57039C8.37664 1.80984 7.90536 1.0493 7.41797 0.267334C7.34298 0.310181 7.31085 0.320894 7.28943 0.347674C6.56102 1.27425 5.96646 2.28116 5.48978 3.35771C4.99703 4.46638 4.59534 5.61255 4.41859 6.81764C4.26327 7.87276 4.09725 8.93323 4.03298 9.99906C3.958 11.1613 4.0062 12.3342 4.22579 13.4858C4.40253 14.3909 4.54714 15.3068 4.75602 16.2066C4.88456 16.769 5.06136 17.3206 5.28096 17.8562C5.70408 18.8953 6.1325 19.9343 6.63596 20.9359C7.27331 22.1999 8.15704 23.3032 9.04613 24.4065C9.72097 25.242 10.3851 26.0883 11.0492 26.9292L19.7473 38.0802C20.54 36.8591 21.3487 35.5308 21.9646 34.2025C22.5056 33.0403 22.9341 31.8459 23.1751 30.5712C23.55 28.5734 23.2769 26.6667 22.452 24.8671Z" fill="#A884D2"/>
<path d="M43.9519 9.08366C43.9144 8.32847 43.8126 7.66969 43.6787 6.91451C43.6573 6.80203 43.6305 6.68956 43.6091 6.57173C43.5448 6.19146 43.4216 5.70942 43.3145 5.34522C42.9128 4.01159 42.3986 2.72081 41.6649 1.52644C41.3542 1.02298 41.0008 0.540949 40.6366 0C39.8974 1.1783 39.2065 2.2602 38.5263 3.35281C37.6961 4.68644 36.882 6.03078 36.0572 7.36976C35.3984 8.43559 34.7343 9.50142 34.0755 10.5673C33.2829 11.8473 32.4902 13.1274 31.6921 14.4021C30.953 15.5858 30.1817 16.7534 29.4694 17.9531L35.0931 29.4041C35.0717 29.2862 35.0932 29.1684 35.2003 29.0399C35.6395 28.5096 36.0465 27.958 36.4696 27.417C37.5783 26.0084 38.6923 24.5998 39.801 23.1912C40.6901 22.0557 41.4346 20.8239 42.0076 19.5063C42.4201 18.5583 42.8271 17.5942 43.1056 16.598C43.4109 15.5108 43.5609 14.3807 43.7805 13.2666C44.0536 11.8848 44.0215 10.4816 43.9519 9.08366Z" fill="#420789"/>
<g opacity="0.55" filter="url(#filter1_d_19_481)">
<path d="M35.0271 29.3209L35.9465 28.0539L29.473 17.9609L35.0271 29.3209Z" fill="#121212" fill-opacity="0.8" shape-rendering="crispEdges"/>
</g>
<path d="M36.8553 33.1654C36.6464 32.7316 36.4857 32.2763 36.2768 31.8425C35.9126 31.082 35.5323 30.3375 35.1574 29.5823C35.1306 29.5234 35.1092 29.4698 35.0985 29.4163L29.4748 17.9653C30.1871 16.7656 30.9584 15.6033 31.6975 14.4143C30.8888 15.7104 30.0371 16.9798 29.2712 18.3027C28.3768 19.8506 27.5306 21.4252 26.7004 23.0052C25.8328 24.6602 25.174 26.3955 24.8044 28.2433C24.3867 30.3482 24.7134 32.3245 25.7524 34.1456C26.6576 35.7256 27.7073 37.2199 28.7036 38.7463C29.5819 40.0906 30.4763 41.4189 31.3601 42.7525C32.0081 43.7327 32.6616 44.7182 33.3204 45.7144C33.5989 45.5483 33.8613 45.4091 34.1023 45.2431C34.3755 45.0609 34.6486 44.8681 34.9003 44.6539C36.9677 42.8918 38.2371 40.7334 38.3121 37.9483C38.3442 36.6682 37.9853 35.5006 37.4926 34.333C37.2891 33.942 37.0481 33.5618 36.8553 33.1654Z" fill="#A884D2"/>
<path opacity="0.3" d="M19.707 38.0082L12.9425 29.4226L12.3105 30.7187L19.707 38.0082Z" fill="#121212" fill-opacity="0.8"/>
</g>
<defs>
<filter id="filter0_d_19_481" x="0" y="0" width="48.0003" height="53.7144" filterUnits="userSpaceOnUse" color-interpolation-filters="sRGB">
<feFlood flood-opacity="0" result="BackgroundImageFix"/>
<feColorMatrix in="SourceAlpha" type="matrix" values="0 0 0 0 0 0 0 0 0 0 0 0 0 0 0 0 0 0 127 0" result="hardAlpha"/>
<feOffset dy="4"/>
<feGaussianBlur stdDeviation="2"/>
<feComposite in2="hardAlpha" operator="out"/>
<feColorMatrix type="matrix" values="0 0 0 0 0 0 0 0 0 0 0 0 0 0 0 0 0 0 0.25 0"/>
<feBlend mode="normal" in2="BackgroundImageFix" result="effect1_dropShadow_19_481"/>
<feBlend mode="normal" in="SourceGraphic" in2="effect1_dropShadow_19_481" result="shape"/>
</filter>
<filter id="filter1_d_19_481" x="24.0154" y="17.9609" width="17.3887" height="22.2751" filterUnits="userSpaceOnUse" color-interpolation-filters="sRGB">
<feFlood flood-opacity="0" result="BackgroundImageFix"/>
<feColorMatrix in="SourceAlpha" type="matrix" values="0 0 0 0 0 0 0 0 0 0 0 0 0 0 0 0 0 0 127 0" result="hardAlpha"/>
<feOffset dy="5.45761"/>
<feGaussianBlur stdDeviation="2.72881"/>
<feComposite in2="hardAlpha" operator="out"/>
<feColorMatrix type="matrix" values="0 0 0 0 0 0 0 0 0 0 0 0 0 0 0 0 0 0 0.25 0"/>
<feBlend mode="normal" in2="BackgroundImageFix" result="effect1_dropShadow_19_481"/>
<feBlend mode="normal" in="SourceGraphic" in2="effect1_dropShadow_19_481" result="shape"/>
</filter>
</defs>
</svg>
