<svg width="100" height="38" viewBox="0 0 100 38" fill="none" xmlns="http://www.w3.org/2000/svg">
<g filter="url(#filter0_d_19_489)">
<path d="M21.1655 28.16L17.3895 24.32C17.1548 24.3413 16.9202 24.352 16.6855 24.352C16.4508 24.3733 16.2162 24.384 15.9815 24.384C13.7202 24.384 11.7575 23.968 10.0935 23.136C8.45083 22.304 7.1815 21.0453 6.2855 19.36C5.41083 17.6747 4.9735 15.5627 4.9735 13.024C4.9735 10.464 5.41083 8.352 6.2855 6.688C7.1815 5.00267 8.45083 3.744 10.0935 2.912C11.7575 2.08 13.7202 1.664 15.9815 1.664C18.2855 1.664 20.2588 2.08 21.9015 2.912C23.5442 3.744 24.8028 5.00267 25.6775 6.688C26.5735 8.352 27.0215 10.464 27.0215 13.024C27.0215 15.776 26.4988 18.016 25.4535 19.744C24.4295 21.472 22.9788 22.72 21.1015 23.488L25.9335 28.16H21.1655ZM15.9815 21.344C17.1548 21.344 18.1895 21.184 19.0855 20.864C20.0028 20.544 20.7708 20.0533 21.3895 19.392C22.0295 18.7307 22.5095 17.8987 22.8295 16.896C23.1708 15.8933 23.3415 14.7307 23.3415 13.408V12.704C23.3415 11.3387 23.1708 10.1547 22.8295 9.152C22.5095 8.14933 22.0295 7.31733 21.3895 6.656C20.7708 5.99467 20.0028 5.504 19.0855 5.184C18.1895 4.864 17.1548 4.704 15.9815 4.704C14.8295 4.704 13.7948 4.864 12.8775 5.184C11.9815 5.504 11.2135 5.99467 10.5735 6.656C9.95483 7.31733 9.4855 8.14933 9.1655 9.152C8.8455 10.1547 8.6855 11.3387 8.6855 12.704V13.408C8.6855 14.7307 8.8455 15.8933 9.1655 16.896C9.4855 17.8987 9.95483 18.7307 10.5735 19.392C11.2135 20.0533 11.9815 20.544 12.8775 20.864C13.7948 21.184 14.8295 21.344 15.9815 21.344ZM35.0905 24L28.8505 7.168H32.3385L35.2505 15.2C35.3785 15.584 35.5385 16.0853 35.7305 16.704C35.9225 17.3013 36.1145 17.92 36.3065 18.56C36.4985 19.2 36.6692 19.776 36.8185 20.288H36.9785C37.1065 19.7973 37.2558 19.2427 37.4265 18.624C37.6185 17.984 37.8105 17.3547 38.0025 16.736C38.1945 16.1173 38.3652 15.6053 38.5145 15.2L41.3945 7.168H44.7865L38.5145 24H35.0905ZM47.2065 4.256V0.863998H50.5345V4.256H47.2065ZM47.2065 24V7.168H50.5345V24H47.2065ZM54.8315 29.536V7.168H57.5515L57.8395 9.472H58.0635C58.6395 8.576 59.3755 7.904 60.2715 7.456C61.1675 7.008 62.1702 6.784 63.2795 6.784C64.6662 6.784 65.8502 7.09333 66.8315 7.712C67.8342 8.33067 68.6022 9.29067 69.1355 10.592C69.6688 11.8933 69.9355 13.5787 69.9355 15.648C69.9355 17.6533 69.6582 19.3067 69.1035 20.608C68.5702 21.888 67.8128 22.8373 66.8315 23.456C65.8502 24.0747 64.7195 24.384 63.4395 24.384C62.6928 24.384 61.9995 24.2987 61.3595 24.128C60.7195 23.9573 60.1435 23.6907 59.6315 23.328C59.1408 22.9653 58.7142 22.5067 58.3515 21.952H58.1595V29.536H54.8315ZM62.2875 21.504C63.2902 21.504 64.1008 21.312 64.7195 20.928C65.3382 20.5227 65.7862 19.904 66.0635 19.072C66.3622 18.24 66.5115 17.184 66.5115 15.904V15.328C66.5115 13.984 66.3622 12.896 66.0635 12.064C65.7648 11.232 65.3062 10.624 64.6875 10.24C64.0902 9.856 63.3115 9.664 62.3515 9.664C61.3702 9.664 60.5702 9.888 59.9515 10.336C59.3328 10.7627 58.8742 11.4027 58.5755 12.256C58.2982 13.1093 58.1595 14.144 58.1595 15.36V15.808C58.1595 16.8107 58.2555 17.6747 58.4475 18.4C58.6395 19.1253 58.9168 19.7227 59.2795 20.192C59.6422 20.64 60.0795 20.9707 60.5915 21.184C61.1035 21.3973 61.6688 21.504 62.2875 21.504ZM73.3628 24V0.863998H76.6908V24H73.3628ZM87.9638 24.384C86.2358 24.384 84.7851 24.0747 83.6118 23.456C82.4598 22.816 81.5851 21.8453 80.9878 20.544C80.3904 19.2427 80.0918 17.5893 80.0918 15.584C80.0918 13.5573 80.3904 11.904 80.9878 10.624C81.5851 9.32267 82.4704 8.36267 83.6438 7.744C84.8171 7.104 86.2784 6.784 88.0278 6.784C89.6278 6.784 90.9611 7.09333 92.0278 7.712C93.1158 8.30933 93.9371 9.22667 94.4918 10.464C95.0464 11.7013 95.3238 13.2587 95.3238 15.136V16.416H83.5158C83.5584 17.6107 83.7398 18.6133 84.0598 19.424C84.3798 20.2133 84.8598 20.8 85.4998 21.184C86.1611 21.5467 86.9931 21.728 87.9958 21.728C88.6144 21.728 89.1691 21.6533 89.6598 21.504C90.1504 21.3333 90.5664 21.0987 90.9078 20.8C91.2491 20.48 91.5158 20.1067 91.7078 19.68C91.8998 19.232 91.9958 18.7307 91.9958 18.176H95.2598C95.2598 19.1787 95.0891 20.064 94.7478 20.832C94.4064 21.6 93.9051 22.2507 93.2438 22.784C92.6038 23.296 91.8358 23.6907 90.9398 23.968C90.0438 24.2453 89.0518 24.384 87.9638 24.384ZM83.5798 13.984H91.8358C91.8358 13.152 91.7398 12.4587 91.5478 11.904C91.3771 11.328 91.1211 10.8587 90.7798 10.496C90.4384 10.1333 90.0331 9.87733 89.5638 9.728C89.0944 9.55733 88.5611 9.472 87.9638 9.472C87.0678 9.472 86.2998 9.632 85.6598 9.952C85.0411 10.272 84.5611 10.7733 84.2198 11.456C83.8784 12.1173 83.6651 12.96 83.5798 13.984Z" fill="white"/>
</g>
<defs>
<filter id="filter0_d_19_489" x="0.973499" y="0.864014" width="98.3503" height="36.6719" filterUnits="userSpaceOnUse" color-interpolation-filters="sRGB">
<feFlood flood-opacity="0" result="BackgroundImageFix"/>
<feColorMatrix in="SourceAlpha" type="matrix" values="0 0 0 0 0 0 0 0 0 0 0 0 0 0 0 0 0 0 127 0" result="hardAlpha"/>
<feOffset dy="4"/>
<feGaussianBlur stdDeviation="2"/>
<feComposite in2="hardAlpha" operator="out"/>
<feColorMatrix type="matrix" values="0 0 0 0 0 0 0 0 0 0 0 0 0 0 0 0 0 0 0.25 0"/>
<feBlend mode="normal" in2="BackgroundImageFix" result="effect1_dropShadow_19_489"/>
<feBlend mode="normal" in="SourceGraphic" in2="effect1_dropShadow_19_489" result="shape"/>
</filter>
</defs>
</svg>
