<svg width="71" height="73" viewBox="0 0 71 73" fill="none" xmlns="http://www.w3.org/2000/svg">
<path fill-rule="evenodd" clip-rule="evenodd" d="M19.6014 0.239741C15.8849 1.23767 13.6826 5.0667 14.6825 8.78974C15.6824 12.5138 19.5069 14.7236 23.223 13.7266C26.9394 12.7287 29.1417 8.89967 28.1418 5.1756C27.1429 1.45153 23.3175 -0.758231 19.6014 0.239612V0.239741Z" fill="white"/>
<path d="M24.2148 37.0666C19.0985 58.0109 19.5841 48.4265 21.0653 69.5476C21.8533 73.2832 27.8816 72.5118 27.8198 68.8776L26.9539 56.5197C26.8806 55.4685 26.866 54.7869 27.1142 53.7694L28.4159 48.4417L28.5154 53.0944C28.5897 53.9362 28.7364 54.91 29.8106 55.4967L44.8689 62.7615C48.8154 63.8895 51.2447 58.8927 47.806 56.6317L36.3802 51.1202C35.2346 50.5406 35.2396 49.5784 35.1934 48.4885L34.9689 37.7262L30.6181 21.2767C39.279 22.1878 35.9628 20.9307 45.3382 27.9911C48.0353 30.0412 51.8391 26.4348 49.1598 23.5634C37.739 14.7652 41.1939 16.6698 27.8336 14.6909C27.8241 14.714 22.0363 15.7351 19.7658 16.85C11.3709 27.9765 15.8112 25.0936 3.6609 30.4323C0.55307 31.7802 1.83634 36.8629 5.65324 35.9317C18.9141 30.2761 15.0676 34.2527 21.3222 25.9629L24.2151 37.0662L24.2148 37.0666Z" fill="white"/>
<path fill-rule="evenodd" clip-rule="evenodd" d="M6.96793 54.8094C3.1203 54.8094 0 57.9363 0 61.7915C0 65.6476 3.12043 68.7745 6.96793 68.7745C10.8166 68.7745 13.9369 65.6476 13.9369 61.7915C13.9369 57.9364 10.8165 54.8094 6.96793 54.8094Z" fill="white"/>
<path d="M57.0812 30.9517C55.3194 30.9517 55.3194 27.5496 57.0812 27.5496H69.2272C70.9901 27.5496 70.9901 30.9517 69.2272 30.9517H57.0812Z" fill="white"/>
<path d="M54.9559 22.4583C53.1931 22.4583 53.1931 19.0562 54.9559 19.0562H67.1019C68.8638 19.0562 68.8638 22.4583 67.1019 22.4583H54.9559Z" fill="white"/>
<path d="M54.9559 39.2317C53.1931 39.2317 53.1931 35.8296 54.9559 35.8296H67.1019C68.8638 35.8296 68.8638 39.2317 67.1019 39.2317H54.9559Z" fill="white"/>
</svg>
